<?xml version="1.0" encoding="UTF-8"?>
<svg width="512" height="512" viewBox="0 0 512 512" fill="none" xmlns="http://www.w3.org/2000/svg">
  <rect width="512" height="512" rx="100" fill="#3B82F6"/>
  <path d="M384 160H128C110.3 160 96 174.3 96 192V352C96 369.7 110.3 384 128 384H384C401.7 384 416 369.7 416 352V192C416 174.3 401.7 160 384 160ZM384 192V220.8L256 297.6L128 220.8V192H384ZM128 352V255.2L250.6 329.1C252.2 330.1 254.1 330.7 256 330.7C257.9 330.7 259.8 330.1 261.4 329.1L384 255.2V352H128Z" fill="white"/>
</svg>